<svg id="그룹_1971" data-name="그룹 1971" xmlns="http://www.w3.org/2000/svg" width="20" height="20" viewBox="0 0 20 20">
  <rect id="사각형_2615" data-name="사각형 2615" width="20" height="20"/>
  <path id="패스_1163" data-name="패스 1163" d="M-2273.242,102.737c.137-.129.274-.254.405-.384q4.111-4.11,8.219-8.223a1.453,1.453,0,0,1,1.325-.536,1.3,1.3,0,0,1,.835,2.1,4.027,4.027,0,0,1-.389.417q-4.566,4.57-9.136,9.141c-.935.935-1.579.939-2.507.015-1.227-1.22-2.46-2.434-3.675-3.665a1.326,1.326,0,0,1-.175-1.712,1.308,1.308,0,0,1,1.617-.436,2.329,2.329,0,0,1,.611.469c.925.909,1.84,1.829,2.759,2.745A1.044,1.044,0,0,0-2273.242,102.737Z" transform="translate(2280.576 -89.574)" fill="#fff"/>
</svg>
